<svg width="108" height="30" viewBox="0 0 108 30" fill="none" xmlns="http://www.w3.org/2000/svg">
<mask id="path-1-outside-1_51_234" maskUnits="userSpaceOnUse" x="22.3893" y="6" width="85" height="18" fill="black">
<rect fill="white" x="22.3893" y="6" width="85" height="18"/>
<path d="M28.3821 23.2733C27.2584 23.2733 26.2714 23.0683 25.421 22.6583C24.5858 22.2483 23.9253 21.6637 23.4393 20.9044C22.9686 20.1452 22.7256 19.2417 22.7104 18.1939H25.2615C25.2767 18.9987 25.5501 19.6896 26.0815 20.2667C26.6282 20.8285 27.3875 21.1094 28.3593 21.1094C29.2553 21.1094 29.9538 20.9044 30.4549 20.4944C30.956 20.0693 31.2065 19.5226 31.2065 18.8544C31.2065 18.2926 31.0547 17.8294 30.751 17.465C30.4625 17.0854 30.0069 16.7513 29.3843 16.4628C28.7617 16.1591 27.9569 15.8478 26.9699 15.5289C25.6488 15.1037 24.6769 14.5191 24.0543 13.775C23.4317 13.0157 23.1204 12.0894 23.1204 10.9961C23.1204 9.73574 23.576 8.71833 24.4871 7.94389C25.3982 7.16944 26.651 6.78222 28.2454 6.78222C29.7943 6.78222 31.0395 7.18463 31.981 7.98944C32.9225 8.77907 33.4084 9.88 33.4388 11.2922H30.8649C30.8649 10.9126 30.7586 10.5481 30.546 10.1989C30.3334 9.83444 30.0297 9.53833 29.6349 9.31056C29.2401 9.06759 28.7541 8.94611 28.1771 8.94611C27.4634 8.93093 26.8636 9.10556 26.3777 9.47C25.8917 9.81926 25.6488 10.2976 25.6488 10.905C25.6488 11.6491 25.9449 12.2337 26.5371 12.6589C27.1293 13.0689 28.0936 13.4941 29.4299 13.9344C30.2651 14.2078 31.0015 14.5419 31.6393 14.9367C32.2923 15.3163 32.801 15.8098 33.1654 16.4172C33.5451 17.0094 33.7349 17.7687 33.7349 18.695C33.7349 19.5454 33.5223 20.3198 33.0971 21.0183C32.6719 21.7017 32.0569 22.2483 31.2521 22.6583C30.4625 23.0683 29.5058 23.2733 28.3821 23.2733ZM41.2199 23V7.05556H46.6182C47.833 7.05556 48.8352 7.26815 49.6249 7.69333C50.4145 8.10333 50.9991 8.67278 51.3788 9.40167C51.7584 10.1306 51.9482 10.9657 51.9482 11.9072C51.9482 12.8487 51.7584 13.6839 51.3788 14.4128C50.9991 15.1417 50.4145 15.7187 49.6249 16.1439C48.8352 16.5539 47.833 16.7589 46.6182 16.7589H43.6343V23H41.2199ZM43.6343 14.595H46.5043C47.5369 14.595 48.2886 14.352 48.7593 13.8661C49.2452 13.3802 49.4882 12.7272 49.4882 11.9072C49.4882 11.1024 49.2452 10.457 48.7593 9.97111C48.2886 9.47 47.5369 9.21944 46.5043 9.21944H43.6343V14.595ZM64.6493 23.2733C63.3586 23.2733 62.2425 22.9393 61.301 22.2711C60.3595 21.603 59.6382 20.6539 59.1371 19.4239C58.636 18.1939 58.3854 16.7285 58.3854 15.0278C58.3854 13.327 58.636 11.8617 59.1371 10.6317C59.6382 9.40167 60.3595 8.45259 61.301 7.78444C62.2425 7.1163 63.3586 6.78222 64.6493 6.78222C65.9552 6.78222 67.0713 7.1163 67.9976 7.78444C68.9391 8.45259 69.6604 9.40167 70.1615 10.6317C70.6626 11.8617 70.9132 13.327 70.9132 15.0278C70.9132 16.7285 70.6626 18.1939 70.1615 19.4239C69.6604 20.6539 68.9391 21.603 67.9976 22.2711C67.0713 22.9393 65.9552 23.2733 64.6493 23.2733ZM64.6493 20.9956C65.7882 20.9956 66.7069 20.4869 67.4054 19.4694C68.1039 18.4369 68.4532 16.9563 68.4532 15.0278C68.4532 13.0993 68.1039 11.6263 67.4054 10.6089C66.7069 9.5763 65.7882 9.06 64.6493 9.06C63.4952 9.06 62.5689 9.5763 61.8704 10.6089C61.1871 11.6263 60.8454 13.0993 60.8454 15.0278C60.8454 16.9563 61.1871 18.4369 61.8704 19.4694C62.5689 20.4869 63.4952 20.9956 64.6493 20.9956ZM81.6554 23V9.21944H77.3732V7.05556H88.3521V9.21944H84.0698V23H81.6554ZM101.235 23.2733C100.112 23.2733 99.1247 23.0683 98.2743 22.6583C97.4391 22.2483 96.7785 21.6637 96.2926 20.9044C95.8219 20.1452 95.5789 19.2417 95.5637 18.1939H98.1148C98.13 18.9987 98.4034 19.6896 98.9348 20.2667C99.4815 20.8285 100.241 21.1094 101.213 21.1094C102.109 21.1094 102.807 20.9044 103.308 20.4944C103.809 20.0693 104.06 19.5226 104.06 18.8544C104.06 18.2926 103.908 17.8294 103.604 17.465C103.316 17.0854 102.86 16.7513 102.238 16.4628C101.615 16.1591 100.81 15.8478 99.8232 15.5289C98.5021 15.1037 97.5302 14.5191 96.9076 13.775C96.285 13.0157 95.9737 12.0894 95.9737 10.9961C95.9737 9.73574 96.4293 8.71833 97.3404 7.94389C98.2515 7.16944 99.5043 6.78222 101.099 6.78222C102.648 6.78222 103.893 7.18463 104.834 7.98944C105.776 8.77907 106.262 9.88 106.292 11.2922H103.718C103.718 10.9126 103.612 10.5481 103.399 10.1989C103.187 9.83444 102.883 9.53833 102.488 9.31056C102.093 9.06759 101.607 8.94611 101.03 8.94611C100.317 8.93093 99.7169 9.10556 99.231 9.47C98.745 9.81926 98.5021 10.2976 98.5021 10.905C98.5021 11.6491 98.7982 12.2337 99.3904 12.6589C99.9826 13.0689 100.947 13.4941 102.283 13.9344C103.118 14.2078 103.855 14.5419 104.493 14.9367C105.146 15.3163 105.654 15.8098 106.019 16.4172C106.398 17.0094 106.588 17.7687 106.588 18.695C106.588 19.5454 106.376 20.3198 105.95 21.0183C105.525 21.7017 104.91 22.2483 104.105 22.6583C103.316 23.0683 102.359 23.2733 101.235 23.2733Z"/>
</mask>
<path d="M28.3821 23.2733C27.2584 23.2733 26.2714 23.0683 25.421 22.6583C24.5858 22.2483 23.9253 21.6637 23.4393 20.9044C22.9686 20.1452 22.7256 19.2417 22.7104 18.1939H25.2615C25.2767 18.9987 25.5501 19.6896 26.0815 20.2667C26.6282 20.8285 27.3875 21.1094 28.3593 21.1094C29.2553 21.1094 29.9538 20.9044 30.4549 20.4944C30.956 20.0693 31.2065 19.5226 31.2065 18.8544C31.2065 18.2926 31.0547 17.8294 30.751 17.465C30.4625 17.0854 30.0069 16.7513 29.3843 16.4628C28.7617 16.1591 27.9569 15.8478 26.9699 15.5289C25.6488 15.1037 24.6769 14.5191 24.0543 13.775C23.4317 13.0157 23.1204 12.0894 23.1204 10.9961C23.1204 9.73574 23.576 8.71833 24.4871 7.94389C25.3982 7.16944 26.651 6.78222 28.2454 6.78222C29.7943 6.78222 31.0395 7.18463 31.981 7.98944C32.9225 8.77907 33.4084 9.88 33.4388 11.2922H30.8649C30.8649 10.9126 30.7586 10.5481 30.546 10.1989C30.3334 9.83444 30.0297 9.53833 29.6349 9.31056C29.2401 9.06759 28.7541 8.94611 28.1771 8.94611C27.4634 8.93093 26.8636 9.10556 26.3777 9.47C25.8917 9.81926 25.6488 10.2976 25.6488 10.905C25.6488 11.6491 25.9449 12.2337 26.5371 12.6589C27.1293 13.0689 28.0936 13.4941 29.4299 13.9344C30.2651 14.2078 31.0015 14.5419 31.6393 14.9367C32.2923 15.3163 32.801 15.8098 33.1654 16.4172C33.5451 17.0094 33.7349 17.7687 33.7349 18.695C33.7349 19.5454 33.5223 20.3198 33.0971 21.0183C32.6719 21.7017 32.0569 22.2483 31.2521 22.6583C30.4625 23.0683 29.5058 23.2733 28.3821 23.2733ZM41.2199 23V7.05556H46.6182C47.833 7.05556 48.8352 7.26815 49.6249 7.69333C50.4145 8.10333 50.9991 8.67278 51.3788 9.40167C51.7584 10.1306 51.9482 10.9657 51.9482 11.9072C51.9482 12.8487 51.7584 13.6839 51.3788 14.4128C50.9991 15.1417 50.4145 15.7187 49.6249 16.1439C48.8352 16.5539 47.833 16.7589 46.6182 16.7589H43.6343V23H41.2199ZM43.6343 14.595H46.5043C47.5369 14.595 48.2886 14.352 48.7593 13.8661C49.2452 13.3802 49.4882 12.7272 49.4882 11.9072C49.4882 11.1024 49.2452 10.457 48.7593 9.97111C48.2886 9.47 47.5369 9.21944 46.5043 9.21944H43.6343V14.595ZM64.6493 23.2733C63.3586 23.2733 62.2425 22.9393 61.301 22.2711C60.3595 21.603 59.6382 20.6539 59.1371 19.4239C58.636 18.1939 58.3854 16.7285 58.3854 15.0278C58.3854 13.327 58.636 11.8617 59.1371 10.6317C59.6382 9.40167 60.3595 8.45259 61.301 7.78444C62.2425 7.1163 63.3586 6.78222 64.6493 6.78222C65.9552 6.78222 67.0713 7.1163 67.9976 7.78444C68.9391 8.45259 69.6604 9.40167 70.1615 10.6317C70.6626 11.8617 70.9132 13.327 70.9132 15.0278C70.9132 16.7285 70.6626 18.1939 70.1615 19.4239C69.6604 20.6539 68.9391 21.603 67.9976 22.2711C67.0713 22.9393 65.9552 23.2733 64.6493 23.2733ZM64.6493 20.9956C65.7882 20.9956 66.7069 20.4869 67.4054 19.4694C68.1039 18.4369 68.4532 16.9563 68.4532 15.0278C68.4532 13.0993 68.1039 11.6263 67.4054 10.6089C66.7069 9.5763 65.7882 9.06 64.6493 9.06C63.4952 9.06 62.5689 9.5763 61.8704 10.6089C61.1871 11.6263 60.8454 13.0993 60.8454 15.0278C60.8454 16.9563 61.1871 18.4369 61.8704 19.4694C62.5689 20.4869 63.4952 20.9956 64.6493 20.9956ZM81.6554 23V9.21944H77.3732V7.05556H88.3521V9.21944H84.0698V23H81.6554ZM101.235 23.2733C100.112 23.2733 99.1247 23.0683 98.2743 22.6583C97.4391 22.2483 96.7785 21.6637 96.2926 20.9044C95.8219 20.1452 95.5789 19.2417 95.5637 18.1939H98.1148C98.13 18.9987 98.4034 19.6896 98.9348 20.2667C99.4815 20.8285 100.241 21.1094 101.213 21.1094C102.109 21.1094 102.807 20.9044 103.308 20.4944C103.809 20.0693 104.06 19.5226 104.06 18.8544C104.06 18.2926 103.908 17.8294 103.604 17.465C103.316 17.0854 102.86 16.7513 102.238 16.4628C101.615 16.1591 100.81 15.8478 99.8232 15.5289C98.5021 15.1037 97.5302 14.5191 96.9076 13.775C96.285 13.0157 95.9737 12.0894 95.9737 10.9961C95.9737 9.73574 96.4293 8.71833 97.3404 7.94389C98.2515 7.16944 99.5043 6.78222 101.099 6.78222C102.648 6.78222 103.893 7.18463 104.834 7.98944C105.776 8.77907 106.262 9.88 106.292 11.2922H103.718C103.718 10.9126 103.612 10.5481 103.399 10.1989C103.187 9.83444 102.883 9.53833 102.488 9.31056C102.093 9.06759 101.607 8.94611 101.03 8.94611C100.317 8.93093 99.7169 9.10556 99.231 9.47C98.745 9.81926 98.5021 10.2976 98.5021 10.905C98.5021 11.6491 98.7982 12.2337 99.3904 12.6589C99.9826 13.0689 100.947 13.4941 102.283 13.9344C103.118 14.2078 103.855 14.5419 104.493 14.9367C105.146 15.3163 105.654 15.8098 106.019 16.4172C106.398 17.0094 106.588 17.7687 106.588 18.695C106.588 19.5454 106.376 20.3198 105.95 21.0183C105.525 21.7017 104.91 22.2483 104.105 22.6583C103.316 23.0683 102.359 23.2733 101.235 23.2733Z" fill="#212121"/>
<path d="M25.421 22.6583L25.3206 22.8628L25.3221 22.8635L25.421 22.6583ZM23.4393 20.9044L23.2457 21.0245L23.2475 21.0272L23.4393 20.9044ZM22.7104 18.1939V17.9661H22.4793L22.4827 18.1972L22.7104 18.1939ZM25.2615 18.1939L25.4893 18.1896L25.4851 17.9661H25.2615V18.1939ZM26.0815 20.2667L25.9139 20.421L25.9183 20.4255L26.0815 20.2667ZM30.4549 20.4944L30.5991 20.6708L30.6022 20.6681L30.4549 20.4944ZM30.751 17.465L30.5695 17.603L30.576 17.6108L30.751 17.465ZM29.3843 16.4628L29.2844 16.6675L29.2886 16.6694L29.3843 16.4628ZM26.9699 15.5289L27.0399 15.3121L27.0397 15.3121L26.9699 15.5289ZM24.0543 13.775L23.8782 13.9194L23.8796 13.9212L24.0543 13.775ZM31.981 7.98944L31.833 8.16259L31.8346 8.16397L31.981 7.98944ZM33.4388 11.2922V11.52H33.6715L33.6665 11.2873L33.4388 11.2922ZM30.8649 11.2922H30.6371V11.52H30.8649V11.2922ZM30.546 10.1989L30.3492 10.3137L30.3514 10.3173L30.546 10.1989ZM29.6349 9.31056L29.5155 9.50462L29.5211 9.50785L29.6349 9.31056ZM28.1771 8.94611L28.1723 9.17389H28.1771V8.94611ZM26.3777 9.47L26.5106 9.655L26.5143 9.65222L26.3777 9.47ZM26.5371 12.6589L26.4042 12.8439L26.4074 12.8462L26.5371 12.6589ZM29.4299 13.9344L29.3586 14.1508L29.359 14.1509L29.4299 13.9344ZM31.6393 14.9367L31.5194 15.1304L31.5248 15.1336L31.6393 14.9367ZM33.1654 16.4172L32.97 16.5345L32.9737 16.5401L33.1654 16.4172ZM33.0971 21.0183L33.2905 21.1387L33.2917 21.1368L33.0971 21.0183ZM31.2521 22.6583L31.1487 22.4554L31.1471 22.4562L31.2521 22.6583ZM28.3821 23.0456C27.2862 23.0456 26.3341 22.8457 25.5199 22.4532L25.3221 22.8635C26.2086 23.291 27.2306 23.5011 28.3821 23.5011V23.0456ZM25.5214 22.4539C24.7223 22.0616 24.0939 21.5047 23.6312 20.7817L23.2475 21.0272C23.7566 21.8227 24.4493 22.4351 25.3206 22.8628L25.5214 22.4539ZM23.6329 20.7844C23.1874 20.0659 22.9529 19.2043 22.9382 18.1906L22.4827 18.1972C22.4984 19.279 22.7497 20.2244 23.2457 21.0245L23.6329 20.7844ZM22.7104 18.4217H25.2615V17.9661H22.7104V18.4217ZM25.0338 18.1982C25.05 19.0571 25.3437 19.8018 25.914 20.421L26.2491 20.1124C25.7564 19.5774 25.5034 18.9403 25.4893 18.1896L25.0338 18.1982ZM25.9183 20.4255C26.5177 21.0415 27.3417 21.3372 28.3593 21.3372V20.8817C27.4333 20.8817 26.7388 20.6155 26.2448 20.1078L25.9183 20.4255ZM28.3593 21.3372C29.2878 21.3372 30.0441 21.1248 30.5991 20.6707L30.3106 20.3182C29.8634 20.6841 29.2227 20.8817 28.3593 20.8817V21.3372ZM30.6022 20.6681C31.1553 20.1988 31.4343 19.5882 31.4343 18.8544H30.9788C30.9788 19.457 30.7566 19.9397 30.3075 20.3208L30.6022 20.6681ZM31.4343 18.8544C31.4343 18.2496 31.2698 17.7318 30.926 17.3192L30.576 17.6108C30.8396 17.9271 30.9788 18.3356 30.9788 18.8544H31.4343ZM30.9323 17.3272C30.6136 16.9078 30.1226 16.5538 29.4801 16.2561L29.2886 16.6694C29.8913 16.9487 30.3113 17.2629 30.5696 17.6028L30.9323 17.3272ZM29.4842 16.2581C28.8485 15.948 28.0327 15.6329 27.0399 15.3121L26.8999 15.7456C27.8812 16.0627 28.675 16.3702 29.2845 16.6675L29.4842 16.2581ZM27.0397 15.3121C25.7427 14.8947 24.8146 14.3286 24.229 13.6288L23.8796 13.9212C24.5393 14.7095 25.5548 15.3127 26.9001 15.7457L27.0397 15.3121ZM24.2305 13.6306C23.6451 12.9167 23.3482 12.0431 23.3482 10.9961H22.8927C22.8927 12.1358 23.2184 13.1148 23.8782 13.9194L24.2305 13.6306ZM23.3482 10.9961C23.3482 9.79844 23.7775 8.84601 24.6346 8.11744L24.3396 7.77034C23.3745 8.59066 22.8927 9.67304 22.8927 10.9961H23.3482ZM24.6346 8.11744C25.4925 7.38821 26.6869 7.01 28.2454 7.01V6.55444C26.6151 6.55444 25.3039 6.95068 24.3396 7.77034L24.6346 8.11744ZM28.2454 7.01C29.7541 7.01 30.9423 7.40119 31.833 8.16258L32.129 7.81631C31.1367 6.96807 29.8346 6.55444 28.2454 6.55444V7.01ZM31.8346 8.16397C32.718 8.90489 33.1819 9.93964 33.211 11.2971L33.6665 11.2873C33.6349 9.82036 33.1269 8.65325 32.1274 7.81492L31.8346 8.16397ZM33.4388 11.0644H30.8649V11.52H33.4388V11.0644ZM31.0927 11.2922C31.0927 10.8676 30.9731 10.4625 30.7406 10.0805L30.3514 10.3173C30.544 10.6337 30.6371 10.9576 30.6371 11.2922H31.0927ZM30.7427 10.0841C30.5086 9.68268 30.175 9.35921 29.7487 9.11326L29.5211 9.50785C29.8844 9.71745 30.1582 9.98621 30.3492 10.3137L30.7427 10.0841ZM29.7543 9.11657C29.3157 8.84669 28.786 8.71833 28.1771 8.71833V9.17389C28.7223 9.17389 29.1644 9.2885 29.5155 9.50454L29.7543 9.11657ZM28.1819 8.71838C27.4266 8.70231 26.7745 8.88762 26.241 9.28778L26.5143 9.65222C26.9526 9.32349 27.5002 9.15954 28.1723 9.17384L28.1819 8.71838ZM26.2447 9.28504C25.6982 9.67785 25.421 10.2256 25.421 10.905H25.8765C25.8765 10.3696 26.0853 9.96066 26.5106 9.65496L26.2447 9.28504ZM25.421 10.905C25.421 11.7206 25.751 12.3749 26.4043 12.8439L26.6699 12.4739C26.1388 12.0925 25.8765 11.5775 25.8765 10.905H25.421ZM26.4074 12.8462C27.0275 13.2754 28.0173 13.7088 29.3586 14.1508L29.5012 13.7181C28.1698 13.2794 27.2312 12.8623 26.6668 12.4716L26.4074 12.8462ZM29.359 14.1509C30.1799 14.4196 30.8994 14.7465 31.5194 15.1303L31.7592 14.743C31.1037 14.3372 30.3503 13.996 29.5007 13.718L29.359 14.1509ZM31.5248 15.1336C32.1468 15.4952 32.6268 15.9622 32.9701 16.5344L33.3608 16.3C32.9752 15.6575 32.4377 15.1374 31.7538 14.7398L31.5248 15.1336ZM32.9737 16.5401C33.3234 17.0857 33.5071 17.7987 33.5071 18.695H33.9627C33.9627 17.7387 33.7667 16.9331 33.3572 16.2943L32.9737 16.5401ZM33.5071 18.695C33.5071 19.5053 33.3051 20.2385 32.9025 20.8999L33.2917 21.1368C33.7395 20.4011 33.9627 19.5854 33.9627 18.695H33.5071ZM32.9037 20.898C32.503 21.5419 31.9212 22.0618 31.1487 22.4554L31.3555 22.8613C32.1926 22.4348 32.8408 21.8614 33.2905 21.1387L32.9037 20.898ZM31.1471 22.4562C30.3973 22.8455 29.4787 23.0456 28.3821 23.0456V23.5011C29.533 23.5011 30.5276 23.2912 31.3571 22.8605L31.1471 22.4562ZM41.2199 23H40.9921V23.2278H41.2199V23ZM41.2199 7.05556V6.82778H40.9921V7.05556H41.2199ZM49.6249 7.69333L49.5169 7.89391L49.5199 7.89548L49.6249 7.69333ZM51.3788 9.40167L51.1767 9.50689V9.50689L51.3788 9.40167ZM51.3788 14.4128L51.1767 14.3076V14.3076L51.3788 14.4128ZM49.6249 16.1439L49.7298 16.3461L49.7329 16.3444L49.6249 16.1439ZM43.6343 16.7589V16.5311H43.4065V16.7589H43.6343ZM43.6343 23V23.2278H43.8621V23H43.6343ZM43.6343 14.595H43.4065V14.8228H43.6343V14.595ZM48.7593 13.8661L48.5982 13.705L48.5957 13.7076L48.7593 13.8661ZM48.7593 9.97111L48.5932 10.1271L48.5983 10.1322L48.7593 9.97111ZM43.6343 9.21944V8.99167H43.4065V9.21944H43.6343ZM41.4476 23V7.05556H40.9921V23H41.4476ZM41.2199 7.28333H46.6182V6.82778H41.2199V7.28333ZM46.6182 7.28333C47.8081 7.28333 48.7701 7.49178 49.5169 7.89388L49.7329 7.49278C48.9004 7.04452 47.8579 6.82778 46.6182 6.82778V7.28333ZM49.5199 7.89548C50.2716 8.28579 50.8205 8.82298 51.1767 9.50689L51.5808 9.29645C51.1777 8.52258 50.5574 7.92088 49.7298 7.49118L49.5199 7.89548ZM51.1767 9.50689C51.5371 10.1988 51.7204 10.997 51.7204 11.9072H52.176C52.176 10.9345 51.9796 10.0623 51.5808 9.29645L51.1767 9.50689ZM51.7204 11.9072C51.7204 12.8174 51.5371 13.6156 51.1767 14.3076L51.5808 14.518C51.9796 13.7522 52.176 12.88 52.176 11.9072H51.7204ZM51.1767 14.3076C50.8201 14.9923 50.2702 15.5377 49.5169 15.9433L49.7329 16.3444C50.5588 15.8997 51.1781 15.2911 51.5808 14.518L51.1767 14.3076ZM49.5199 15.9417C48.7724 16.3299 47.8092 16.5311 46.6182 16.5311V16.9867C47.8569 16.9867 48.8981 16.7779 49.7298 16.346L49.5199 15.9417ZM46.6182 16.5311H43.6343V16.9867H46.6182V16.5311ZM43.4065 16.7589V23H43.8621V16.7589H43.4065ZM43.6343 22.7722H41.2199V23.2278H43.6343V22.7722ZM43.6343 14.8228H46.5043V14.3672H43.6343V14.8228ZM46.5043 14.8228C47.5666 14.8228 48.3912 14.5735 48.9229 14.0246L48.5957 13.7076C48.186 14.1306 47.5072 14.3672 46.5043 14.3672V14.8228ZM48.9204 14.0272C49.4571 13.4904 49.716 12.7751 49.716 11.9072H49.2604C49.2604 12.6793 49.0334 13.2699 48.5983 13.705L48.9204 14.0272ZM49.716 11.9072C49.716 11.0531 49.4563 10.346 48.9204 9.81005L48.5983 10.1322C49.0342 10.5681 49.2604 11.1517 49.2604 11.9072H49.716ZM48.9253 9.81516C48.3939 9.24945 47.5683 8.99167 46.5043 8.99167V9.44722C47.5055 9.44722 48.1832 9.69055 48.5933 10.1271L48.9253 9.81516ZM46.5043 8.99167H43.6343V9.44722H46.5043V8.99167ZM43.4065 9.21944V14.595H43.8621V9.21944H43.4065ZM61.301 22.2711L61.4328 22.0854V22.0854L61.301 22.2711ZM59.1371 19.4239L58.9261 19.5098L59.1371 19.4239ZM59.1371 10.6317L58.9261 10.5457V10.5457L59.1371 10.6317ZM61.301 7.78444L61.1691 7.59869V7.59869L61.301 7.78444ZM67.9976 7.78444L67.8644 7.96918L67.8658 7.9702L67.9976 7.78444ZM70.1615 10.6317L70.3725 10.5457V10.5457L70.1615 10.6317ZM70.1615 19.4239L70.3725 19.5098V19.5098L70.1615 19.4239ZM67.9976 22.2711L67.8658 22.0854L67.8644 22.0864L67.9976 22.2711ZM67.4054 19.4694L67.5932 19.5984L67.5941 19.5971L67.4054 19.4694ZM67.4054 10.6089L67.2167 10.7365L67.2176 10.7378L67.4054 10.6089ZM61.8704 10.6089L61.6818 10.4813L61.6813 10.4819L61.8704 10.6089ZM61.8704 19.4694L61.6804 19.5952L61.6826 19.5984L61.8704 19.4694ZM64.6493 23.0456C63.4 23.0456 62.3313 22.723 61.4328 22.0854L61.1691 22.4569C62.1536 23.1555 63.3171 23.5011 64.6493 23.5011V23.0456ZM61.4328 22.0854C60.5317 21.4459 59.8353 20.534 59.348 19.3379L58.9261 19.5098C59.4411 20.7738 60.1873 21.76 61.1691 22.4569L61.4328 22.0854ZM59.348 19.3379C58.8607 18.1417 58.6132 16.707 58.6132 15.0278H58.1576C58.1576 16.7501 58.4113 18.2461 58.9261 19.5098L59.348 19.3379ZM58.6132 15.0278C58.6132 13.3486 58.8607 11.9138 59.348 10.7176L58.9261 10.5457C58.4113 11.8095 58.1576 13.3055 58.1576 15.0278H58.6132ZM59.348 10.7176C59.8353 9.52155 60.5317 8.60968 61.4328 7.9702L61.1691 7.59869C60.1873 8.29551 59.4411 9.28178 58.9261 10.5457L59.348 10.7176ZM61.4328 7.9702C62.3313 7.33257 63.4 7.01 64.6493 7.01V6.55444C63.3171 6.55444 62.1536 6.90002 61.1691 7.59869L61.4328 7.9702ZM64.6493 7.01C65.9145 7.01 66.9823 7.33291 67.8644 7.96918L68.1309 7.59971C67.1604 6.89968 65.9959 6.55444 64.6493 6.55444V7.01ZM67.8658 7.9702C68.7669 8.60968 69.4633 9.52155 69.9506 10.7176L70.3725 10.5457C69.8575 9.28178 69.1113 8.29551 68.1295 7.59869L67.8658 7.9702ZM69.9506 10.7176C70.4379 11.9138 70.6854 13.3486 70.6854 15.0278H71.141C71.141 13.3055 70.8873 11.8095 70.3725 10.5457L69.9506 10.7176ZM70.6854 15.0278C70.6854 16.707 70.4379 18.1417 69.9506 19.3379L70.3725 19.5098C70.8873 18.2461 71.141 16.7501 71.141 15.0278H70.6854ZM69.9506 19.3379C69.4633 20.534 68.7669 21.4459 67.8658 22.0854L68.1295 22.4569C69.1113 21.76 69.8575 20.7738 70.3725 19.5098L69.9506 19.3379ZM67.8644 22.0864C66.9823 22.7226 65.9145 23.0456 64.6493 23.0456V23.5011C65.9959 23.5011 67.1604 23.1559 68.1309 22.4558L67.8644 22.0864ZM64.6493 21.2233C65.8704 21.2233 66.8564 20.6716 67.5932 19.5984L67.2176 19.3405C66.5574 20.3021 65.706 20.7678 64.6493 20.7678V21.2233ZM67.5941 19.5971C68.3285 18.5114 68.681 16.9787 68.681 15.0278H68.2254C68.2254 16.9339 67.8793 18.3623 67.2168 19.3418L67.5941 19.5971ZM68.681 15.0278C68.681 13.0772 68.3287 11.5512 67.5932 10.48L67.2176 10.7378C67.8792 11.7014 68.2254 13.1213 68.2254 15.0278H68.681ZM67.5941 10.4813C66.8579 9.39302 65.8719 8.83222 64.6493 8.83222V9.28778C65.7045 9.28778 66.5559 9.75957 67.2168 10.7365L67.5941 10.4813ZM64.6493 8.83222C63.4127 8.83222 62.4186 9.39198 61.6818 10.4813L62.0591 10.7365C62.7193 9.76061 63.5777 9.28778 64.6493 9.28778V8.83222ZM61.6813 10.4819C60.9621 11.5527 60.6176 13.0779 60.6176 15.0278H61.0732C61.0732 13.1206 61.412 11.6999 62.0595 10.7359L61.6813 10.4819ZM60.6176 15.0278C60.6176 16.978 60.9622 18.5098 61.6805 19.5951L62.0604 19.3437C61.4119 18.3639 61.0732 16.9346 61.0732 15.0278H60.6176ZM61.6826 19.5984C62.4202 20.6726 63.4142 21.2233 64.6493 21.2233V20.7678C63.5762 20.7678 62.7177 20.3011 62.0582 19.3405L61.6826 19.5984ZM81.6554 23H81.4276V23.2278H81.6554V23ZM81.6554 9.21944H81.8832V8.99167H81.6554V9.21944ZM77.3732 9.21944H77.1454V9.44722H77.3732V9.21944ZM77.3732 7.05556V6.82778H77.1454V7.05556H77.3732ZM88.3521 7.05556H88.5798V6.82778H88.3521V7.05556ZM88.3521 9.21944V9.44722H88.5798V9.21944H88.3521ZM84.0698 9.21944V8.99167H83.8421V9.21944H84.0698ZM84.0698 23V23.2278H84.2976V23H84.0698ZM81.8832 23V9.21944H81.4276V23H81.8832ZM81.6554 8.99167H77.3732V9.44722H81.6554V8.99167ZM77.601 9.21944V7.05556H77.1454V9.21944H77.601ZM77.3732 7.28333H88.3521V6.82778H77.3732V7.28333ZM88.1243 7.05556V9.21944H88.5798V7.05556H88.1243ZM88.3521 8.99167H84.0698V9.44722H88.3521V8.99167ZM83.8421 9.21944V23H84.2976V9.21944H83.8421ZM84.0698 22.7722H81.6554V23.2278H84.0698V22.7722ZM98.2743 22.6583L98.1739 22.8628L98.1754 22.8635L98.2743 22.6583ZM96.2926 20.9044L96.099 21.0245L96.1008 21.0272L96.2926 20.9044ZM95.5637 18.1939V17.9661H95.3326L95.336 18.1972L95.5637 18.1939ZM98.1148 18.1939L98.3426 18.1896L98.3384 17.9661H98.1148V18.1939ZM98.9348 20.2667L98.7672 20.421L98.7716 20.4255L98.9348 20.2667ZM103.308 20.4944L103.452 20.6708L103.456 20.6681L103.308 20.4944ZM103.604 17.465L103.423 17.603L103.429 17.6108L103.604 17.465ZM102.238 16.4628L102.138 16.6675L102.142 16.6694L102.238 16.4628ZM99.8232 15.5289L99.8932 15.3121L99.893 15.3121L99.8232 15.5289ZM96.9076 13.775L96.7315 13.9194L96.7329 13.9212L96.9076 13.775ZM104.834 7.98944L104.686 8.16259L104.688 8.16397L104.834 7.98944ZM106.292 11.2922V11.52H106.525L106.52 11.2873L106.292 11.2922ZM103.718 11.2922H103.49V11.52H103.718V11.2922ZM103.399 10.1989L103.203 10.3137L103.205 10.3173L103.399 10.1989ZM102.488 9.31056L102.369 9.50462L102.374 9.50785L102.488 9.31056ZM101.03 8.94611L101.026 9.17389H101.03V8.94611ZM99.231 9.47L99.3639 9.655L99.3676 9.65222L99.231 9.47ZM99.3904 12.6589L99.2575 12.8439L99.2607 12.8462L99.3904 12.6589ZM102.283 13.9344L102.212 14.1508L102.212 14.1509L102.283 13.9344ZM104.493 14.9367L104.373 15.1304L104.378 15.1336L104.493 14.9367ZM106.019 16.4172L105.823 16.5345L105.827 16.5401L106.019 16.4172ZM105.95 21.0183L106.144 21.1387L106.145 21.1368L105.95 21.0183ZM104.105 22.6583L104.002 22.4554L104 22.4562L104.105 22.6583ZM101.235 23.0456C100.139 23.0456 99.1874 22.8457 98.3732 22.4532L98.1754 22.8635C99.0619 23.291 100.084 23.5011 101.235 23.5011V23.0456ZM98.3747 22.4539C97.5756 22.0616 96.9472 21.5047 96.4845 20.7817L96.1008 21.0272C96.6099 21.8227 97.3026 22.4351 98.1739 22.8628L98.3747 22.4539ZM96.4862 20.7844C96.0407 20.0659 95.8062 19.2043 95.7915 18.1906L95.336 18.1972C95.3517 19.279 95.603 20.2244 96.099 21.0245L96.4862 20.7844ZM95.5637 18.4217H98.1148V17.9661H95.5637V18.4217ZM97.8871 18.1982C97.9033 19.0571 98.197 19.8018 98.7673 20.421L99.1024 20.1124C98.6097 19.5774 98.3567 18.9403 98.3426 18.1896L97.8871 18.1982ZM98.7716 20.4255C99.371 21.0415 100.195 21.3372 101.213 21.3372V20.8817C100.287 20.8817 99.5921 20.6155 99.0981 20.1078L98.7716 20.4255ZM101.213 21.3372C102.141 21.3372 102.897 21.1248 103.452 20.6707L103.164 20.3182C102.717 20.6841 102.076 20.8817 101.213 20.8817V21.3372ZM103.456 20.6681C104.009 20.1988 104.288 19.5882 104.288 18.8544H103.832C103.832 19.457 103.61 19.9397 103.161 20.3208L103.456 20.6681ZM104.288 18.8544C104.288 18.2496 104.123 17.7318 103.779 17.3192L103.429 17.6108C103.693 17.9271 103.832 18.3356 103.832 18.8544H104.288ZM103.786 17.3272C103.467 16.9078 102.976 16.5538 102.333 16.2561L102.142 16.6694C102.745 16.9487 103.165 17.2629 103.423 17.6028L103.786 17.3272ZM102.337 16.2581C101.702 15.948 100.886 15.6329 99.8932 15.3121L99.7531 15.7456C100.734 16.0627 101.528 16.3702 102.138 16.6675L102.337 16.2581ZM99.893 15.3121C98.596 14.8947 97.6679 14.3286 97.0823 13.6288L96.7329 13.9212C97.3926 14.7095 98.4081 15.3127 99.7534 15.7457L99.893 15.3121ZM97.0838 13.6306C96.4984 12.9167 96.2015 12.0431 96.2015 10.9961H95.746C95.746 12.1358 96.0717 13.1148 96.7315 13.9194L97.0838 13.6306ZM96.2015 10.9961C96.2015 9.79844 96.6308 8.84601 97.4879 8.11744L97.1929 7.77034C96.2278 8.59066 95.746 9.67304 95.746 10.9961H96.2015ZM97.4879 8.11744C98.3458 7.38821 99.5401 7.01 101.099 7.01V6.55444C99.4684 6.55444 98.1572 6.95068 97.1929 7.77034L97.4879 8.11744ZM101.099 7.01C102.607 7.01 103.796 7.40119 104.686 8.16258L104.982 7.81631C103.99 6.96807 102.688 6.55444 101.099 6.55444V7.01ZM104.688 8.16397C105.571 8.90489 106.035 9.93964 106.064 11.2971L106.52 11.2873C106.488 9.82036 105.98 8.65325 104.981 7.81492L104.688 8.16397ZM106.292 11.0644H103.718V11.52H106.292V11.0644ZM103.946 11.2922C103.946 10.8676 103.826 10.4625 103.594 10.0805L103.205 10.3173C103.397 10.6337 103.49 10.9576 103.49 11.2922H103.946ZM103.596 10.0841C103.362 9.68268 103.028 9.35921 102.602 9.11326L102.374 9.50785C102.738 9.71745 103.012 9.98621 103.203 10.3137L103.596 10.0841ZM102.608 9.11657C102.169 8.84669 101.639 8.71833 101.03 8.71833V9.17389C101.576 9.17389 102.018 9.2885 102.369 9.50454L102.608 9.11657ZM101.035 8.71838C100.28 8.70231 99.6278 8.88762 99.0943 9.28778L99.3676 9.65222C99.8059 9.32349 100.353 9.15954 101.026 9.17384L101.035 8.71838ZM99.098 9.28504C98.5515 9.67785 98.2743 10.2256 98.2743 10.905H98.7298C98.7298 10.3696 98.9386 9.96066 99.3639 9.65496L99.098 9.28504ZM98.2743 10.905C98.2743 11.7206 98.6043 12.3749 99.2576 12.8439L99.5232 12.4739C98.9921 12.0925 98.7298 11.5775 98.7298 10.905H98.2743ZM99.2607 12.8462C99.8808 13.2754 100.871 13.7088 102.212 14.1508L102.354 13.7181C101.023 13.2794 100.084 12.8623 99.52 12.4716L99.2607 12.8462ZM102.212 14.1509C103.033 14.4196 103.753 14.7465 104.373 15.1303L104.613 14.743C103.957 14.3372 103.204 13.996 102.354 13.718L102.212 14.1509ZM104.378 15.1336C105 15.4952 105.48 15.9622 105.823 16.5344L106.214 16.3C105.829 15.6575 105.291 15.1374 104.607 14.7398L104.378 15.1336ZM105.827 16.5401C106.177 17.0857 106.36 17.7987 106.36 18.695H106.816C106.816 17.7387 106.62 16.9331 106.21 16.2943L105.827 16.5401ZM106.36 18.695C106.36 19.5053 106.158 20.2385 105.756 20.8999L106.145 21.1368C106.593 20.4011 106.816 19.5854 106.816 18.695H106.36ZM105.757 20.898C105.356 21.5419 104.774 22.0618 104.002 22.4554L104.209 22.8613C105.046 22.4348 105.694 21.8614 106.144 21.1387L105.757 20.898ZM104 22.4562C103.251 22.8455 102.332 23.0456 101.235 23.0456V23.5011C102.386 23.5011 103.381 23.2912 104.21 22.8605L104 22.4562Z" fill="#212121" mask="url(#path-1-outside-1_51_234)"/>
<path d="M6.58377 4.55556L6.58377 13.6667" stroke="#212121" stroke-width="2.84722"/>
<path d="M0.889324 10.25L6.58377 14.8056L12.2782 10.25" stroke="#212121" stroke-width="2.84722" stroke-linejoin="bevel"/>
<circle cx="6.58377" cy="20.5" r="2.27778" fill="#212121"/>
</svg>
